<svg xmlns="http://www.w3.org/2000/svg" enable-background="new 0 0 1000 1000" viewBox="0 0 1000 1000" id="woman"><linearGradient id="a" x1="514.554" x2="504.834" y1="451.308" y2="715.908" gradientUnits="userSpaceOnUse"><stop offset="0" stop-color="#001d51"></stop><stop offset="1" stop-color="#8700ca"></stop></linearGradient><path fill="url(#a)" d="M412.5,591.95c34.81-13.28,120.53-37.88,211.49-2.47c10.97,4.27,23.03-2.9,24.56-14.58l5.77-44.14
			c1.42-10.87-7.04-20.51-18.01-20.51H387.14c-12.88,0-21.67,13.05-16.83,24.99l18.89,46.57
			C392.92,590.96,403.27,595.47,412.5,591.95z"></path><linearGradient id="b" x1="502.396" x2="519.046" y1="587.732" y2="1153.836" gradientUnits="userSpaceOnUse"><stop offset=".032" stop-color="#faaf87"></stop><stop offset=".82" stop-color="#ffd9a9"></stop></linearGradient><path fill="url(#b)" d="M849.85,745.55c-32.58-32.2-187.63-11.77-239.61-70.46c-10.45-11.81-20.66-52.67-28.74-94.17
		c-0.24-1.24-1.43-2.15-2.82-2.15h-64h-5.91h-63.99c-1.39,0-2.58,0.91-2.82,2.15c-8.09,41.5-18.29,82.35-28.74,94.17
		c-51.97,58.69-207.05,38.26-239.61,70.46c-13.4,13.29-16.98,43.5-17.13,71.09c0,0,1.28,268.71,2.87,268.71
		c0,0,707.64-1.16,707.64-2.6V816.64C866.83,789.06,863.25,758.85,849.85,745.55z"></path><linearGradient id="c" x1="147.212" x2="876.233" y1="878.681" y2="878.681" gradientUnits="userSpaceOnUse"><stop offset="0" stop-color="#fb1d51"></stop><stop offset="1" stop-color="#f20061"></stop></linearGradient><path fill="url(#c)" d="M854.18,750.18c-20.44-28.55-83.45-21.11-144.94-36.32C668.8,795.82,595.7,850.55,512.23,850.55
		c-83.47,0-156.57-54.73-197.01-136.68c-63.1,10.52-107.11,14.22-138.69,29.56c-37.56,18.25-28.3,300.07-28.3,300.07H509.2h6.05
		h360.98V860.47C876.08,820.57,867.92,769.41,854.18,750.18z"></path><linearGradient id="d" x1="467.648" x2="564.136" y1="180.381" y2="577.298" gradientUnits="userSpaceOnUse"><stop offset=".032" stop-color="#faaf87"></stop><stop offset="1" stop-color="#ffd9a9"></stop></linearGradient><path fill="url(#d)" d="M335.75,278.05c24.63-107.5,102.01-150.53,174.49-151.73v-0.08
				c0.59,0.01,1.22,0.06,1.81,0.06c0.63,0,1.19-0.05,1.81-0.05v0.07c72.47,1.4,149.71,44.62,174.06,152.18
				c35.08,155.02-25.81,252.05-95.04,310.73c-27.97,23.76-54.5,34.36-79.69,34.34v0.09c-0.63,0.02-1.2-0.08-1.81-0.08
				c-0.6,0-1.24,0.1-1.82,0.08v-0.09c-25.23-0.07-51.72-10.73-79.61-34.55C360.87,530.16,300.28,432.97,335.75,278.05z"></path><linearGradient id="e" x1="509.709" x2="511.374" y1="512.368" y2="540.375" gradientUnits="userSpaceOnUse"><stop offset="0" stop-color="#ff0036"></stop><stop offset="1" stop-color="#ff2651"></stop></linearGradient><path fill="url(#e)" d="M521.83,505.11c-4.43,0-9.57,5.73-11.58,5.73c-2.02,0-7.15-5.73-11.58-5.73
				c-9.93,0-42.95,16.38-42.95,16.38s7.61,5.55,14.03,8.06c15.54,6.07,27.61,11.57,40.5,11.57c12.89,0,24.96-5.49,40.5-11.57
				c6.42-2.51,14.03-8.06,14.03-8.06S531.76,505.11,521.83,505.11z"></path><linearGradient id="f" x1="278.489" x2="753.742" y1="384.864" y2="384.864" gradientTransform="matrix(1.0011 .0116 .0116 1.118 -9.757 -99.053)" gradientUnits="userSpaceOnUse"><stop offset="0" stop-color="#001d51"></stop><stop offset="1" stop-color="#8700ca"></stop></linearGradient><path fill="url(#f)" d="M464.64,253.32c54.58,18.42,132.2,50.59,155.56,90.59c1.8,3.08,2.95,6.48,3.41,10.01
		c2.97,22.88,15.62,126.18,11.68,196.05c-1.41,25.02,29.53,37.95,46.36,19.39c22.87-25.21,47.8-70.86,63.97-153.46
		c0.11-0.57,0.2-1.14,0.28-1.71c2.15-16.49,30.36-253.51-117.36-311.65c0,0-303.75-110.36-347.47,188.06
		c-29.36,200.38,39.22,271.67,91.78,297.03c20.95,10.11,43.86-9.85,36.91-32.05c-18.4-58.79-43.26-164.17-22.92-258.27
		C394.38,262.4,430.79,241.9,464.64,253.32z"></path></svg>