<svg xmlns="http://www.w3.org/2000/svg" enable-background="new 0 0 64 64" viewBox="0 0 64 64" id="men"><path fill="#3f4042" d="M19.915,19.203l-0.499-1.745C19.14,16.491,19,15.49,19,14.484v0c0-2.871,1.14-5.624,3.171-7.654l0,0
		C23.982,5.018,26.439,4,29.001,4h9.17C39.983,4,41.719,3.281,43,2l0,0l1.123,3.93C44.705,7.967,45,10.075,45,12.193v0
		c0,1.864-0.229,3.721-0.681,5.53l-0.359,1.435"></path><path fill="#5a5b5d" d="M21,14.484c0,1.006,0.14,2.007,0.417,2.974l0.498,1.741l22.047-0.042l0.359-1.435
		C44.771,15.914,45,14.057,45,12.193v0c0-2.118-0.295-4.227-0.877-6.264L43,2c-1.281,1.281-3.017,2-4.828,2h-7.17
		c-2.562,0-5.019,1.018-6.831,2.829C22.141,8.859,21,11.613,21,14.484z"></path><path fill="#50bae3" d="M28,28V34l-10.41,3.47C13.057,38.981,10,43.222,10,48v14h44V48c0-2.104-0.593-4.105-1.644-5.813
		l-0.652-0.946c-1.318-1.716-3.139-3.052-5.293-3.77L36,34v-6L28,28z"></path><path fill="#92e0f7" d="M54,48c0-2.104-0.593-4.105-1.644-5.814l-0.652-0.946c-1.318-1.716-3.139-3.052-5.293-3.77L36,34h-8
		l-10.411,3.47c-0.735,0.245-1.426,0.568-2.076,0.947C14.547,40.075,14,41.989,14,44c0,7.732,6.268,14,14,14h26V48z"></path><rect width="6.289" height="2" x="56.632" y="30.224" fill="#893b20" transform="rotate(-45.001 59.776 31.224)"></rect><rect width="2" height="7.146" x="3.526" y="42.954" fill="#893b20" transform="rotate(-45.001 4.526 46.527)"></rect><rect width="2" height="5.018" x="2.774" y="18.265" fill="#893b20" transform="rotate(-45.001 3.774 20.774)"></rect><polygon fill="#ef9a42" points="9 18 5 22 2 27 5.999 26 5.999 29.999 9 28 13 29 11 25 14 22 9 22"></polygon><polygon fill="#e3803b" points="14 22 9 22 9 18 5.059 21.941 13 29 11 25"></polygon><rect width="2" height="5.299" x="55" y="2" fill="#893b20"></rect><polygon fill="#e3803b" points="61 7 56 6 50 7 53 9 50 13 54 12 55 18 58 12 62 12 59 9"></polygon><polygon fill="#ef9a42" points="59 9 61 7 56 6 55 18 58 12 62 12"></polygon><polygon fill="#ef9a42" points="58 33 54 31 54 35 50 35 53 38 51 43 56 40 60 42 59 38 62 37"></polygon><polygon fill="#e3803b" points="62 37 58 33 51 43 56 40 60 42 59 38"></polygon><polygon fill="#ef9a42" points="6 48 10 46 10 50 14 51 11 53 13 58 8 55 4 57 5 53 2 52"></polygon><polygon fill="#e3803b" points="14 51 10 50 10 46 6 48 13 58 11 53"></polygon><path fill="#eeb9ad" d="M23 19h-2c-1.657 0-3 1.343-3 3v0c0 1.657 1.343 3 3 3h2.512M41 19h2c1.657 0 3 1.343 3 3v0c0 1.657-1.343 3-3 3h-2.512"></path><polyline fill="#fff" points="29 44 29 57 35 57 35 44"></polyline><polygon fill="#4197cd" points="22 42 25 42 27 47 32 45 37 47 39 42 42 42 41.217 35.739 41.217 35.739 36 34 28 34 22.783 35.739 22.783 35.739"></polygon><polygon fill="#eeb9ad" points="28 29 28 39 30 39 32 45 34 39 36 39 36 29"></polygon><path fill="#eeb9ad" d="M41,12l0,10c0,4.971-4.029,9-9,9h0c-4.971,0-9-4.029-9-9v-7l7.169,0C33.985,15,37.728,13.963,41,12
		L41,12z"></path><path fill="#ffe2d5" d="M33 30.941c4.5-.498 8-4.309 8-8.942l0-10c-3.272 1.963-7.015 3-10.831 3L25 15v7C25 26.632 28.501 30.443 33 30.941zM32 32c-1.054 0-2.06-.19-3-.523V37c0 1.105.895 2 2 2h0l1.5 4.5L34 39h2v-7.947C34.794 31.654 33.439 32 32 32z"></path><g><path d="M1.196 27.596c.241.324.657.473 1.046.374l2.757-.688v2.718c0 .369.203.708.528.882.147.079.31.118.472.118.193 0 .387-.057.555-.168l2.633-1.754 3.571.893c.376.097.778-.039 1.022-.344s.289-.724.114-1.073l-1.678-3.355 2.49-2.49c.286-.286.372-.716.217-1.09C14.77 21.243 14.404 21 14 21h-4v-3c0-.404-.243-.77-.617-.924-.374-.156-.804-.07-1.09.217L5 20.586l-2.293-2.293-1.414 1.414 2.448 2.448-2.599 4.33C.935 26.832.956 27.271 1.196 27.596zM5.794 22.62L8 20.414V22c0 .553.447 1 1 1h2.586l-1.293 1.293c-.305.305-.38.77-.188 1.154l1.027 2.056L9.242 27.03c-.273-.071-.562-.019-.797.138l-1.446.964V26c0-.308-.142-.599-.385-.788C6.437 25.073 6.22 25 5.999 25c-.081 0-.162.01-.242.03L4.1 25.444 5.794 22.62zM49.167 13.553c.234.354.666.523 1.075.417l2.949-.737.822 4.932c.071.428.409.761.838.825C54.901 18.996 54.951 19 55 19c.375 0 .724-.211.895-.553L58.618 13H62c.404 0 .77-.243.924-.617.155-.374.069-.804-.217-1.09L60.414 9l1.293-1.293c.261-.261.356-.644.25-.997-.106-.353-.399-.618-.761-.69L57 5.181V2h-2v3.153l-5.164.86c-.405.067-.728.375-.813.776s.081.814.423 1.042l2.12 1.414L49.2 12.4C48.946 12.738 48.933 13.2 49.167 13.553zM53.555 8.168L52.659 7.57l3.324-.554 2.988.598-.679.679c-.391.391-.391 1.023 0 1.414L59.586 11H58c-.379 0-.725.214-.895.553l-1.625 3.25-.494-2.967c-.046-.275-.205-.52-.438-.672C54.384 11.056 54.193 11 54 11c-.081 0-.162.01-.242.03l-1.268.316L53.8 9.6c.165-.22.232-.497.186-.769C53.939 8.561 53.783 8.32 53.555 8.168z"></path><path d="M59.414,33l3.293-3.293l-1.414-1.414l-3.49,3.49l-3.355-1.678c-0.311-0.154-0.678-0.139-0.973,0.044S53,30.653,53,31v3h-3
		c-0.404,0-0.77,0.243-0.924,0.617c-0.155,0.374-0.069,0.804,0.217,1.09l2.533,2.534l-0.451,1.127
		c-1.308-1.286-2.888-2.26-4.649-2.846L37,33.279v-2.633c1.834-1.065,3.301-2.691,4.159-4.647H43c2.206,0,4-1.794,4-4
		c0-1.424-0.753-2.667-1.876-3.376l0.165-0.659C45.761,16.079,46,14.138,46,12.193c0-2.213-0.308-4.412-0.915-6.538l-1.123-3.93
		c-0.098-0.341-0.368-0.604-0.711-0.693s-0.708,0.009-0.958,0.261C41.208,2.378,39.706,3,38.172,3h-9.171
		c-2.848,0-5.524,1.108-7.537,3.122C19.23,8.355,18,11.325,18,14.484c0,1.097,0.153,2.19,0.455,3.248l0.279,0.977
		C17.688,19.432,17,20.636,17,22c0,2.206,1.794,4,4,4h1.841c0.858,1.956,2.325,3.582,4.159,4.647v2.633l-9.727,3.243
		c-4.045,1.348-7.003,4.678-7.949,8.697l-3.127,1.564l-3.49-3.49l-1.414,1.414L4.586,48l-3.293,3.293
		c-0.245,0.245-0.346,0.6-0.267,0.937c0.08,0.338,0.328,0.609,0.657,0.719l2.122,0.708L3.03,56.758
		c-0.095,0.379,0.039,0.778,0.344,1.022c0.306,0.245,0.725,0.287,1.073,0.114l3.509-1.755L9,56.766V62c0,0.553,0.447,1,1,1h44
		c0.553,0,1-0.447,1-1V48c0-1.901-0.451-3.766-1.303-5.452l2.347-1.408l3.509,1.755c0.349,0.173,0.768,0.131,1.073-0.114
		c0.305-0.244,0.438-0.644,0.344-1.022l-0.775-3.102l2.122-0.708c0.329-0.109,0.577-0.381,0.657-0.719
		c0.079-0.337-0.021-0.691-0.267-0.937L59.414,33z M40.304,36.489L40.867,41H39c-0.409,0-0.776,0.249-0.929,0.629L36.443,45.7
		l-3.197-1.279L34.721,40H36c0.553,0,1-0.447,1-1v-3.613L40.304,36.489z M23.696,36.489L27,35.387V39c0,0.553,0.447,1,1,1h1.279
		l1.474,4.422L27.557,45.7l-1.628-4.071C25.776,41.249,25.409,41,25,41h-1.867L23.696,36.489z M30,46.877l2-0.8l2,0.8V56h-4V46.877z
		 M43,24h-1.202C41.93,23.354,42,22.685,42,22v-2h1c1.103,0,2,0.897,2,2S44.103,24,43,24z M20.379,17.184
		C20.127,16.304,20,15.396,20,14.484c0-2.625,1.022-5.092,2.878-6.948C24.514,5.9,26.688,5,29.001,5h9.171
		c1.52,0,3.016-0.454,4.28-1.277l0.709,2.481C43.718,8.151,44,10.167,44,12.193c0,1.78-0.219,3.56-0.65,5.287l-0.135,0.541
		C43.142,18.018,43.073,18,43,18h-1v-6c0-0.36-0.193-0.692-0.507-0.87s-0.698-0.173-1.008,0.013C37.37,13.012,33.803,14,30.169,14
		H23c-0.553,0-1,0.447-1,1v3h-1c-0.129,0-0.251,0.026-0.377,0.038L20.379,17.184z M21,24c-1.103,0-2-0.897-2-2s0.897-2,2-2h1v2
		c0,0.685,0.07,1.354,0.202,2H21z M24,22v-6h6.169c3.419,0,6.784-0.795,9.831-2.312V22c0,4.411-3.589,8-8,8S24,26.411,24,22z M32,32
		c1.045,0,2.052-0.163,3-0.461V34v4h-1c-0.431,0-0.812,0.275-0.948,0.684L32,41.838l-1.052-3.154C30.812,38.275,30.431,38,30,38h-1
		v-4v-2.461C29.948,31.837,30.955,32,32,32z M8,54c-0.153,0-0.306,0.035-0.447,0.105l-2.056,1.027l0.473-1.891
		c0.127-0.507-0.158-1.025-0.653-1.19l-1.465-0.489l2.741-2.74L9,47.618V50c0,0.459,0.312,0.858,0.758,0.97l1.807,0.452
		l-1.119,0.746c-0.394,0.263-0.55,0.765-0.374,1.203l0.897,2.244l-2.454-1.473C8.356,54.048,8.179,54,8,54z M53,48v13H11v-3.034
		l1.485,0.891C12.645,58.953,12.822,59,13,59c0.232,0,0.463-0.081,0.648-0.238c0.327-0.278,0.439-0.734,0.28-1.133l-1.699-4.247
		l2.325-1.55c0.329-0.22,0.498-0.612,0.431-1.003c-0.067-0.39-0.358-0.703-0.743-0.799L11,49.219V48
		c0-4.354,2.775-8.204,6.906-9.581l3.687-1.229l-0.586,4.686c-0.036,0.284,0.053,0.571,0.242,0.786C21.44,42.877,21.713,43,22,43
		h2.323l1.748,4.371C26.228,47.763,26.604,48,27,48c0.124,0,0.25-0.022,0.371-0.071L28,47.677V57c0,0.553,0.447,1,1,1h6
		c0.553,0,1-0.447,1-1v-9.323l0.629,0.252C36.75,47.978,36.876,48,37,48c0.396,0,0.772-0.237,0.929-0.629L39.677,43H42
		c0.287,0,0.56-0.123,0.75-0.338c0.189-0.215,0.278-0.502,0.242-0.786l-0.585-4.686l3.687,1.23c1.744,0.581,3.262,1.632,4.453,3.021
		l-0.475,1.188c-0.159,0.398-0.047,0.854,0.28,1.133C50.537,43.919,50.768,44,51,44c0.178,0,0.355-0.047,0.515-0.143l0.449-0.269
		C52.632,44.96,53,46.462,53,48z M58.684,37.052c-0.495,0.165-0.78,0.684-0.653,1.19l0.473,1.891l-2.056-1.027
		c-0.306-0.152-0.668-0.139-0.962,0.037l-2.454,1.473l0.897-2.244c0.148-0.371,0.062-0.795-0.222-1.078L52.414,36H54
		c0.553,0,1-0.447,1-1v-2.382l2.407,1.204l2.741,2.74L58.684,37.052z"></path></g></svg>