<svg xmlns="http://www.w3.org/2000/svg" viewBox="0 0 20 20" id="tshirt"><linearGradient id="a" x1="8.013" x2="12.013" y1="4.981" y2="4.981" gradientUnits="userSpaceOnUse"><stop offset="0" stop-color="#708afb"></stop><stop offset="1" stop-color="#426de8"></stop></linearGradient><path fill="url(#a)" d="M8 4h4v2H8z"></path><linearGradient id="b" x1="3.013" x2="17.012" y1="10.5" y2="10.5" gradientUnits="userSpaceOnUse"><stop offset="0" stop-color="#ffc80b"></stop><stop offset="1" stop-color="#e89318"></stop></linearGradient><path fill="url(#b)" d="m16.7 6.7-1.6-1.6c-.6-.7-1.4-1.1-2.5-1.1h-.9c0 1-.8 1.8-1.7 1.8C9 5.8 8.2 5 8.2 4h-.7c-.9 0-1.7.3-2.3.9L5 5 3.3 6.7c-.4.3-.4.9 0 1.3l1.2 1.2c.4.3.9.3 1.2 0l.3-.3v7c0 .7.2 1.1.9 1.1h6.2c.7 0 .9-.4.9-1.1v-7l.3.3c.3.3.9.3 1.3 0L16.7 8c.4-.4.4-1 0-1.3z"></path><linearGradient id="c" x1="11.013" x2="13.013" y1="8.981" y2="8.981" gradientUnits="userSpaceOnUse"><stop offset="0" stop-color="#708afb"></stop><stop offset="1" stop-color="#426de8"></stop></linearGradient><path fill="url(#c)" d="M12.5 10h-1c-.3 0-.5-.2-.5-.5V8h2v1.5c0 .3-.2.5-.5.5z"></path></svg>