<svg xmlns="http://www.w3.org/2000/svg" viewBox="0 0 500 500" id="woman"><switch><g><linearGradient id="a" x1="248.707" x2="252.041" y1="85.543" y2="-7.124" gradientUnits="userSpaceOnUse"><stop offset="0"></stop><stop offset="1" stop-color="#111"></stop></linearGradient><ellipse cx="250" cy="49.6" fill="url(#a)" rx="66.3" ry="49.5"></ellipse><linearGradient id="b" x1="346.707" x2="327.207" y1="267.544" y2="262.544" gradientUnits="userSpaceOnUse"><stop offset="0" stop-color="#FFCA9D"></stop><stop offset="1" stop-color="#FFD9A9"></stop></linearGradient><path fill="url(#b)" d="M322.8 244.3s5.9-10.8 13.9-10.6c6.8.2 13.7 9.8 10.4 21-3.3 11.3-9.4 30-9.4 30s-5.2 13.1-16 7.5c-10.7-5.4 1.1-47.9 1.1-47.9z"></path><linearGradient id="c" x1="146" x2="170.81" y1="263.649" y2="263.649" gradientUnits="userSpaceOnUse"><stop offset="0" stop-color="#FFCA9D"></stop><stop offset="1" stop-color="#FFD9A9"></stop></linearGradient><path fill="url(#c)" d="M174.3 244.3s-5.9-10.8-13.9-10.6c-6.8.2-13.7 9.8-10.4 21 3.3 11.3 9.4 30 9.4 30s5.2 13.1 16 7.5c10.7-5.4-1.1-47.9-1.1-47.9z"></path><linearGradient id="d" x1="246.081" x2="251.619" y1="337.524" y2="525.799" gradientUnits="userSpaceOnUse"><stop offset=".032" stop-color="#FAAF87"></stop><stop offset=".82" stop-color="#FFD9A9"></stop></linearGradient><path fill="url(#d)" d="M404.2 410.8c-14.9-14.7-85.6-5.4-109.3-32.1-4.8-5.4-9.4-24-13.1-42.9-.1-.6-.7-1-1.3-1h-61.1c-.6 0-1.2.4-1.3 1-3.7 18.9-8.3 37.6-13.1 42.9-23.7 26.8-94.4 17.4-109.3 32.1-6.1 6.1-7.7 19.8-7.8 32.4v56.5c0 .7.6 1.2 1.3 1.2h321.3c.7 0 1.3-.5 1.3-1.2v-56.5c.1-12.5-1.5-26.3-7.6-32.4z"></path><linearGradient id="e" x1="229.905" x2="273.906" y1="149.194" y2="330.193" gradientUnits="userSpaceOnUse"><stop offset=".032" stop-color="#FAAF87"></stop><stop offset="1" stop-color="#FFD9A9"></stop></linearGradient><path fill="url(#e)" d="M169.8 193.7c11.2-49 46.5-68.6 79.6-69.2h1.6c33 .6 68.3 20.3 79.4 69.4 16 70.7-11.8 114.9-43.3 141.7-12.8 10.8-24.9 15.7-36.3 15.7h-1.6c-11.5 0-23.6-4.9-36.3-15.8-31.7-26.8-59.3-71.1-43.1-141.8z"></path><linearGradient id="f" x1="249.086" x2="249.845" y1="300.584" y2="313.356" gradientUnits="userSpaceOnUse"><stop offset="0" stop-color="#FF0036"></stop><stop offset="1" stop-color="#FF2651"></stop></linearGradient><path fill="url(#f)" d="M254.6 297.3c-2 0-4.4 2.6-5.3 2.6-.9 0-3.3-2.6-5.3-2.6-4.5 0-19.6 7.5-19.6 7.5s3.5 2.5 6.4 3.7c7.1 2.8 12.6 5.3 18.5 5.3s11.4-2.5 18.5-5.3c2.9-1.1 6.4-3.7 6.4-3.7s-15.1-7.5-19.6-7.5z"></path><linearGradient id="g" x1="150.829" x2="347.369" y1="164.363" y2="164.363" gradientUnits="userSpaceOnUse"><stop offset="0"></stop><stop offset="1" stop-color="#111"></stop></linearGradient><path fill="url(#g)" d="M161.4 243.2c1.6 3.1 5.3 4.1 8 2l39.1-29.9c17.9-14.2 65-39.8 79.6-50.7 2.5-1.8 5.9-1.2 7.6 1.4 17.3 26.2 27.2 52.7 32.3 71.3 1.5 5.5 8.4 6 10.5.7 5.4-13.4 12-39.5 7.3-72.5-6.7-47.5-33.4-79.8-76.8-83-7.9-.6-100.3-4.3-115.6 83-7.2 41.3 2.5 67.1 8 77.7z"></path><linearGradient id="h" x1="251.275" x2="249.94" y1="364.964" y2="507.208" gradientUnits="userSpaceOnUse"><stop offset=".549" stop-color="#FD004C"></stop><stop offset=".995" stop-color="#FF515F"></stop></linearGradient><path fill="url(#h)" d="M316.8 391.5c-11.2 19-36.9 32.3-66.8 32.3s-55.6-13.3-66.8-32.3c0 0-13.2-4.7-50.2 109.5h234c-36.9-114.2-50.2-109.5-50.2-109.5z"></path><linearGradient id="i" x1="205" x2="299.75" y1="89.417" y2="89.417" gradientUnits="userSpaceOnUse"><stop offset=".065" stop-color="#FD004C"></stop><stop offset=".995" stop-color="#FA00B7"></stop></linearGradient><path fill="none" stroke="url(#i)" stroke-linecap="round" stroke-miterlimit="10" stroke-width="10" d="M294.8 89c-6-1.3-20-1.5-42.3-1.5s-38.8 2.8-42.5 3.8"></path></g></switch></svg>